<svg width="27" height="28" viewBox="0 0 27 28" fill="none" xmlns="http://www.w3.org/2000/svg">
<path d="M13.5 0C9.91958 0 6.4858 1.44484 3.95406 4.01667C1.42232 6.5885 0 10.0767 0 13.7138C0 17.3509 1.42232 20.839 3.95406 23.4109C6.4858 25.9827 9.91958 27.4275 13.5 27.4275C17.0804 27.4275 20.5142 25.9827 23.0459 23.4109C25.5777 20.839 27 17.3509 27 13.7138C27 10.0767 25.5777 6.5885 23.0459 4.01667C20.5142 1.44484 17.0804 0 13.5 0Z" fill="white"/>
<path d="M15.3275 17.3492H18.8211L19.3697 13.7439H15.3268V11.7734C15.3268 10.2757 15.8085 8.94767 17.1876 8.94767H19.4038V5.80144C19.0144 5.74803 18.1909 5.6311 16.6348 5.6311C13.3856 5.6311 11.4807 7.3742 11.4807 11.3454V13.7439H8.1405V17.3492H11.4807V27.2584C12.1422 27.3595 12.8122 27.4281 13.5 27.4281C14.1217 27.4281 14.7285 27.3703 15.3275 27.288V17.3492Z" fill="#253F1A"/>
</svg>
