<svg width="24" height="24" viewBox="0 0 24 24" fill="none" xmlns="http://www.w3.org/2000/svg">
<path d="M16.4145 1H6.67903C3.515 1 1 3.55482 1 6.76895V16.6586C1 19.8727 3.515 22.4275 6.67903 22.4275H16.4145C19.5785 22.4275 22.0935 19.8727 22.0935 16.6586V6.76895C22.0935 3.55482 19.5785 1 16.4145 1Z" stroke="#253F1A" stroke-width="2" stroke-miterlimit="10" stroke-linecap="round" stroke-linejoin="round"/>
<path d="M17.226 4.79712C17.3905 4.79725 17.5376 4.93498 17.5376 5.12134C17.5375 5.30766 17.3905 5.44543 17.226 5.44556C17.0615 5.44556 16.9145 5.30775 16.9145 5.12134C16.9145 4.93489 17.0615 4.79712 17.226 4.79712Z" fill="#253F1A" stroke="#253F1A"/>
<path d="M11.5468 16.6582C14.2351 16.6582 16.4145 14.4443 16.4145 11.7134C16.4145 8.98242 14.2351 6.76855 11.5468 6.76855C8.85838 6.76855 6.67902 8.98242 6.67902 11.7134C6.67902 14.4443 8.85838 16.6582 11.5468 16.6582Z" stroke="#253F1A" stroke-width="2" stroke-miterlimit="10" stroke-linecap="round" stroke-linejoin="round"/>
</svg>
