<svg width="37" height="43" viewBox="0 0 37 43" fill="none" xmlns="http://www.w3.org/2000/svg">
<path d="M26.8594 0.25L31.3945 4.78613L36.6074 9.99902V42.75H1.19238V0.25H26.8594Z" fill="#FFFEFE" stroke="black" stroke-width="0.5"/>
<path d="M17.2249 2.88037H0V10.5874H17.2249V2.88037Z" fill="#B43331"/>
<path d="M6.17809 5.40666C6.10209 5.22307 6.0008 5.05846 5.86155 4.91921C5.72222 4.77996 5.55132 4.666 5.35504 4.58999C5.15247 4.50769 4.92446 4.46973 4.67133 4.46973H2.77832V9.3572H3.73431V7.51483H4.67133C4.92454 7.51483 5.15247 7.47687 5.35504 7.39457C5.55132 7.31856 5.72214 7.20468 5.86155 7.06535C6.0008 6.9261 6.10217 6.76779 6.17809 6.5779C6.24763 6.39431 6.28568 6.19804 6.28568 5.99547C6.28559 5.78652 6.24763 5.59025 6.17809 5.40666ZM5.14609 6.47653C5.01944 6.5968 4.84224 6.66012 4.6269 6.66012H3.73431V5.31797H4.6269C4.84224 5.31797 5.01944 5.38129 5.14609 5.50786C5.26636 5.62812 5.3296 5.79273 5.3296 5.9953C5.32968 6.19166 5.26636 6.35627 5.14609 6.47653Z" fill="#FFFEFE"/>
<path d="M10.7489 6.36265C10.7426 6.19174 10.7363 6.03981 10.7172 5.90048C10.6983 5.76115 10.6666 5.63459 10.6222 5.51432C10.578 5.40036 10.521 5.28639 10.445 5.18511C10.274 4.93819 10.0652 4.7546 9.83086 4.64063C9.59033 4.52667 9.30546 4.46973 8.96985 4.46973H7.20996V9.3572H8.96994C9.30554 9.3572 9.59041 9.30026 9.83095 9.18629C10.0653 9.07232 10.2741 8.88873 10.445 8.64182C10.521 8.54053 10.5781 8.42657 10.6223 8.3126C10.6667 8.19233 10.6983 8.06569 10.7173 7.92644C10.7364 7.78719 10.7426 7.63518 10.749 7.46427C10.7553 7.29966 10.7553 7.11607 10.7553 6.9135C10.7552 6.71093 10.7552 6.52726 10.7489 6.36265ZM9.7929 7.40733C9.7929 7.55296 9.7803 7.66693 9.76754 7.76821C9.75486 7.8632 9.73596 7.9518 9.7106 8.01513C9.68532 8.08475 9.64727 8.14807 9.60301 8.20502C9.4447 8.40759 9.20417 8.50257 8.88763 8.50257H8.15966V5.31805H8.88763C9.20417 5.31805 9.44479 5.41934 9.60301 5.62191C9.64736 5.67885 9.68532 5.73587 9.7106 5.8055C9.73596 5.87512 9.75494 5.95743 9.76754 6.05871C9.7803 6.1537 9.7929 6.27396 9.7929 6.41321C9.7992 6.55254 9.7992 6.72345 9.7992 6.91334C9.79928 7.10339 9.79928 7.268 9.7929 7.40733Z" fill="#FFFEFE"/>
<path d="M14.8328 5.31805V4.46973H11.6104V9.3572H12.5663V7.37567H14.4973V6.52096H12.5663V5.31805H14.8328Z" fill="#FFFEFE"/>
<path d="M6.17809 5.40666C6.10209 5.22307 6.0008 5.05846 5.86155 4.91921C5.72222 4.77996 5.55132 4.666 5.35504 4.58999C5.15247 4.50769 4.92446 4.46973 4.67133 4.46973H2.77832V9.3572H3.73431V7.51483H4.67133C4.92454 7.51483 5.15247 7.47687 5.35504 7.39457C5.55132 7.31856 5.72214 7.20468 5.86155 7.06535C6.0008 6.9261 6.10217 6.76779 6.17809 6.5779C6.24763 6.39431 6.28568 6.19804 6.28568 5.99547C6.28559 5.78652 6.24763 5.59025 6.17809 5.40666ZM5.14609 6.47653C5.01944 6.5968 4.84224 6.66012 4.6269 6.66012H3.73431V5.31797H4.6269C4.84224 5.31797 5.01944 5.38129 5.14609 5.50786C5.26636 5.62812 5.3296 5.79273 5.3296 5.9953C5.32968 6.19166 5.26636 6.35627 5.14609 6.47653Z" fill="#FFFEFE"/>
<path opacity="0.08" d="M36.8578 9.89569V43.0002H0.942383V35.2385L17.7321 18.4488L18.7261 17.4549L19.2768 16.904L20.1948 15.9861L21.2837 14.8971L31.5715 4.60938L36.8578 9.89569Z" fill="#040000"/>
<path d="M36.8582 9.89638H26.9619V0L36.8582 9.89638Z" fill="#BBBBBA"/>
<path d="M31.7304 31.1295C31.5214 30.7623 31.2365 30.4141 30.882 30.0976C30.5909 29.8317 30.249 29.5848 29.8627 29.3568C28.3054 28.4389 26.0832 27.9957 23.0633 27.9957H22.7594C22.5948 27.8438 22.4238 27.6918 22.2466 27.5335C21.1007 26.5016 20.1891 25.381 19.48 24.1338C20.8727 21.0633 21.5375 18.3283 21.4552 15.9985C21.4425 15.606 21.3855 15.2388 21.2842 14.8969C21.1324 14.3461 20.8791 13.8586 20.5245 13.4598C20.5182 13.4535 20.5182 13.4535 20.5119 13.4471C19.9485 12.814 19.1634 12.4531 18.3657 12.4531C17.5616 12.4531 16.821 12.8013 16.2827 13.4408C15.751 14.0739 15.466 14.9412 15.4534 15.9605C15.4345 17.5179 15.561 18.993 15.8269 20.3541C15.8522 20.4618 15.8713 20.5694 15.8965 20.677C16.1624 21.9115 16.555 23.0827 17.0615 24.1716C16.4664 25.3808 15.8649 26.4254 15.4471 27.1345C15.1306 27.6727 14.7823 28.2361 14.4214 28.7996C12.7944 29.0908 11.4142 29.4453 10.2114 29.8885C8.58427 30.4773 7.28008 31.237 6.34315 32.1423C5.73527 32.7248 5.32383 33.3452 5.12118 33.991C4.90593 34.6557 4.91869 35.3205 5.15922 35.9156C5.38077 36.4664 5.77961 36.9285 6.3114 37.2451C6.43805 37.3211 6.571 37.3843 6.71025 37.4413C7.11547 37.6059 7.55866 37.6945 8.02074 37.6945C9.0907 37.6945 10.1922 37.2324 11.123 36.403C12.8576 34.8519 14.6493 32.3576 15.7065 30.7811C16.5738 30.6482 17.5171 30.5342 18.5808 30.4202C19.8344 30.2936 20.9422 30.2177 21.9489 30.1796C22.2591 30.4582 22.5567 30.7241 22.8416 30.9773C24.4244 32.3891 25.6272 33.4084 26.7162 34.1238C26.7162 34.1301 26.7225 34.1301 26.7288 34.1301C27.1593 34.415 27.5708 34.6492 27.9823 34.8392C28.4444 35.0544 28.9129 35.1684 29.3941 35.1684C30.0019 35.1684 30.5716 34.9848 31.0465 34.6493C31.5276 34.3011 31.8758 33.8009 32.0341 33.2375C32.2179 32.5602 32.1102 31.8069 31.7304 31.1295ZM17.7327 18.4486C17.644 17.6635 17.606 16.8469 17.6187 15.9858C17.6313 15.1692 17.929 14.6183 18.3658 14.6183C18.6949 14.6183 19.0432 14.9159 19.2015 15.4856C19.2458 15.6565 19.2775 15.8528 19.2838 16.0744C19.2964 16.3403 19.2901 16.6188 19.2775 16.9037C19.2395 17.7078 19.1001 18.5624 18.8596 19.4804C18.714 20.0692 18.5241 20.6833 18.2898 21.3227C18.0239 20.4238 17.8339 19.4678 17.7327 18.4486ZM7.17266 35.1116C7.065 34.8457 7.18526 34.3329 7.8437 33.6998C8.85025 32.7375 10.4266 31.9778 12.6236 31.4017C12.2057 31.9714 11.7942 32.4906 11.3953 32.9654C10.7875 33.6997 10.2051 34.3202 9.6796 34.7887C9.2302 35.1938 8.73628 35.4471 8.26782 35.5104C8.18551 35.5231 8.10321 35.5294 8.02091 35.5294C7.60947 35.5295 7.27386 35.3649 7.17266 35.1116ZM17.2894 28.3819L17.3338 28.3122L17.2641 28.3249C17.2767 28.2933 17.2958 28.2616 17.3147 28.2363C17.5807 27.7868 17.9161 27.2107 18.277 26.546L18.3087 26.6156L18.391 26.4447C18.6569 26.8245 18.9481 27.1981 19.252 27.5589C19.3977 27.7298 19.5496 27.8944 19.7015 28.059L19.6003 28.0653L19.6889 28.1476C19.4293 28.1666 19.1571 28.192 18.8849 28.2172C18.7139 28.2362 18.5366 28.2489 18.3594 28.2679C17.9922 28.3058 17.6313 28.3439 17.2894 28.3819ZM27.9445 32.3323C27.1912 31.8512 26.3491 31.1737 25.3108 30.2684C26.7859 30.4203 27.9445 30.7432 28.7675 31.2244C29.1284 31.4333 29.4006 31.6486 29.5841 31.8575C29.8881 32.1803 29.9958 32.4716 29.9386 32.6678C29.8881 32.8641 29.6665 32.997 29.3942 32.997C29.2359 32.997 29.0713 32.9591 28.9004 32.8768C28.6092 32.7375 28.3053 32.5665 27.9824 32.3577C27.9697 32.3577 27.9571 32.345 27.9445 32.3323Z" fill="#B43331"/>
</svg>
