<svg width="27" height="28" viewBox="0 0 27 28" fill="none" xmlns="http://www.w3.org/2000/svg">
<path d="M13.5 27.4275C20.9558 27.4275 27 21.2877 27 13.7138C27 6.13986 20.9558 0 13.5 0C6.04416 0 0 6.13986 0 13.7138C0 21.2877 6.04416 27.4275 13.5 27.4275Z" fill="white"/>
<path d="M13.7997 5.08472C7.97284 5.08472 4.87927 9.05802 4.87927 13.3837C4.87927 15.3954 5.9333 17.8992 7.61977 18.6967C7.8752 18.8175 8.01231 18.7653 8.07098 18.5136C8.11613 18.3227 8.34355 17.3912 8.44585 16.9582C8.47856 16.82 8.46249 16.7013 8.35241 16.5652C7.79421 15.8774 7.34769 14.6137 7.34769 13.4354C7.34769 10.4104 9.60217 7.48358 13.4429 7.48358C16.7593 7.48358 19.0813 9.77957 19.0813 13.063C19.0813 16.7725 17.237 19.3428 14.8376 19.3428C13.5125 19.3428 12.5203 18.2294 12.8385 16.8638C13.2202 15.2339 13.957 13.4754 13.957 12.2982C13.957 11.2454 13.4014 10.3666 12.2492 10.3666C10.8945 10.3666 9.80676 11.7897 9.80676 13.697C9.80676 14.9106 10.2107 15.7324 10.2107 15.7324C10.2107 15.7324 8.87267 21.4795 8.62757 22.5492C8.35624 23.7301 8.462 25.389 8.57941 26.4736C8.88391 26.5949 9.18854 26.7162 9.50334 26.8152C10.0547 25.9047 10.8769 24.4114 11.1817 23.2206C11.3463 22.5787 12.0233 19.9604 12.0233 19.9604C12.4631 20.8134 13.7487 21.5354 15.117 21.5354C19.1882 21.5354 22.1224 17.732 22.1224 13.0055C22.1224 8.47411 18.4831 5.08472 13.7997 5.08472Z" fill="#253F1A"/>
</svg>
