<svg width="53" height="53" viewBox="0 0 53 53" fill="none" xmlns="http://www.w3.org/2000/svg">
<g clip-path="url(#clip0_95_1486)">
<path fill-rule="evenodd" clip-rule="evenodd" d="M41.9257 37.4209C41.287 39.2287 38.7483 40.7243 36.7237 41.1617C35.3378 41.4559 33.5304 41.6887 27.4407 39.1651C20.6011 36.3314 11.1035 26.2376 11.1035 19.5205C11.1035 16.1009 13.0751 12.1191 16.5228 12.1191C18.1817 12.1191 18.5474 12.1514 19.0933 13.4609C19.7319 15.0037 21.2901 18.8047 21.4756 19.1944C22.2415 20.7928 20.6965 21.7285 19.5755 23.1202C19.2178 23.539 18.8124 23.992 19.2655 24.7713C19.716 25.5347 21.2742 28.0742 23.5638 30.1127C26.5212 32.7476 28.9194 33.5888 29.778 33.9467C30.4167 34.2117 31.1799 34.15 31.6463 33.6516C32.2373 33.0128 32.9713 31.9529 33.7186 30.9085C34.2459 30.1609 34.9164 30.0676 35.6187 30.3327C36.093 30.497 42.1217 33.2968 42.3761 33.7448C42.5643 34.0709 42.5643 35.613 41.9257 37.4209ZM26.5053 0H26.492C11.8826 0 0 11.8862 0 26.5C0 32.2947 1.86827 37.6707 5.04562 42.0312L1.74371 51.8782L11.9277 48.6239C16.1173 51.3966 21.1178 53 26.5053 53C41.1147 53 53 41.1138 53 26.5C53 11.8862 41.1147 0 26.5053 0Z" fill="#046C3B"/>
</g>
<defs>
<clipPath id="clip0_95_1486">
<rect width="53" height="53" fill="white"/>
</clipPath>
</defs>
</svg>
